<mxfile host="app.diagrams.net" modified="2022-06-11T07:44:41.264Z" agent="5.0 (Macintosh; Intel Mac OS X 10_15_7) AppleWebKit/605.1.15 (KHTML, like Gecko) Version/15.4 Safari/605.1.15" etag="_gbcuRhrLP1ZAKZKAJuX" version="19.0.3" type="github">
  <diagram id="MpDYNdVOITt3DCFKjYNN" name="Page-1">
    <mxGraphModel dx="788" dy="434" grid="1" gridSize="10" guides="1" tooltips="1" connect="1" arrows="1" fold="1" page="1" pageScale="1" pageWidth="827" pageHeight="1169" math="0" shadow="0">
      <root>
        <mxCell id="0" />
        <mxCell id="1" parent="0" />
        <mxCell id="eqLPgTAr0_EnZ2apYkRN-5" value="True" style="edgeStyle=orthogonalEdgeStyle;rounded=0;orthogonalLoop=1;jettySize=auto;html=1;startArrow=none;" parent="1" source="eqLPgTAr0_EnZ2apYkRN-40" target="eqLPgTAr0_EnZ2apYkRN-4" edge="1">
          <mxGeometry x="-0.5" y="20" relative="1" as="geometry">
            <mxPoint x="414" y="190" as="sourcePoint" />
            <mxPoint as="offset" />
          </mxGeometry>
        </mxCell>
        <mxCell id="eqLPgTAr0_EnZ2apYkRN-7" value="" style="edgeStyle=orthogonalEdgeStyle;rounded=0;orthogonalLoop=1;jettySize=auto;html=1;entryX=0.5;entryY=0;entryDx=0;entryDy=0;" parent="1" source="eqLPgTAr0_EnZ2apYkRN-4" edge="1" target="eqLPgTAr0_EnZ2apYkRN-24">
          <mxGeometry relative="1" as="geometry">
            <mxPoint x="414" y="390" as="targetPoint" />
          </mxGeometry>
        </mxCell>
        <mxCell id="eqLPgTAr0_EnZ2apYkRN-4" value="Reads GPS co-ordinates" style="shape=parallelogram;perimeter=parallelogramPerimeter;whiteSpace=wrap;html=1;fixedSize=1;strokeWidth=2;" parent="1" vertex="1">
          <mxGeometry x="354" y="260" width="120" height="60" as="geometry" />
        </mxCell>
        <mxCell id="eqLPgTAr0_EnZ2apYkRN-42" value="" style="edgeStyle=orthogonalEdgeStyle;rounded=0;orthogonalLoop=1;jettySize=auto;html=1;" parent="1" source="eqLPgTAr0_EnZ2apYkRN-17" target="eqLPgTAr0_EnZ2apYkRN-40" edge="1">
          <mxGeometry relative="1" as="geometry" />
        </mxCell>
        <mxCell id="eqLPgTAr0_EnZ2apYkRN-17" value="Start" style="strokeWidth=2;html=1;shape=mxgraph.flowchart.start_1;whiteSpace=wrap;" parent="1" vertex="1">
          <mxGeometry x="364" y="10" width="100" height="60" as="geometry" />
        </mxCell>
        <mxCell id="eqLPgTAr0_EnZ2apYkRN-39" value="" style="edgeStyle=orthogonalEdgeStyle;rounded=0;orthogonalLoop=1;jettySize=auto;html=1;" parent="1" source="eqLPgTAr0_EnZ2apYkRN-18" target="eqLPgTAr0_EnZ2apYkRN-38" edge="1">
          <mxGeometry relative="1" as="geometry" />
        </mxCell>
        <mxCell id="eqLPgTAr0_EnZ2apYkRN-18" value="Returns back to the launch site" style="rounded=1;whiteSpace=wrap;html=1;absoluteArcSize=1;arcSize=14;strokeWidth=2;" parent="1" vertex="1">
          <mxGeometry x="364" y="800" width="100" height="100" as="geometry" />
        </mxCell>
        <mxCell id="eqLPgTAr0_EnZ2apYkRN-56" style="edgeStyle=orthogonalEdgeStyle;rounded=0;orthogonalLoop=1;jettySize=auto;html=1;entryX=0.5;entryY=0;entryDx=0;entryDy=0;" parent="1" source="eqLPgTAr0_EnZ2apYkRN-24" edge="1" target="eqLPgTAr0_EnZ2apYkRN-34">
          <mxGeometry relative="1" as="geometry">
            <mxPoint x="414" y="560" as="targetPoint" />
          </mxGeometry>
        </mxCell>
        <mxCell id="eqLPgTAr0_EnZ2apYkRN-24" value="rises 30 meters above the ground and reaches the closest GPS co-ordinate" style="rounded=1;whiteSpace=wrap;html=1;absoluteArcSize=1;arcSize=14;strokeWidth=2;" parent="1" vertex="1">
          <mxGeometry x="364" y="360" width="100" height="100" as="geometry" />
        </mxCell>
        <mxCell id="eqLPgTAr0_EnZ2apYkRN-73" style="edgeStyle=orthogonalEdgeStyle;rounded=0;orthogonalLoop=1;jettySize=auto;html=1;entryX=0.5;entryY=0;entryDx=0;entryDy=0;entryPerimeter=0;" parent="1" source="eqLPgTAr0_EnZ2apYkRN-34" target="eqLPgTAr0_EnZ2apYkRN-66" edge="1">
          <mxGeometry relative="1" as="geometry" />
        </mxCell>
        <mxCell id="eqLPgTAr0_EnZ2apYkRN-34" value="Scanning the confined area in a pattern programmed in mission planner till the end of the area" style="rounded=1;whiteSpace=wrap;html=1;absoluteArcSize=1;arcSize=14;strokeWidth=2;" parent="1" vertex="1">
          <mxGeometry x="364" y="520" width="100" height="100" as="geometry" />
        </mxCell>
        <mxCell id="eqLPgTAr0_EnZ2apYkRN-38" value="end" style="strokeWidth=2;html=1;shape=mxgraph.flowchart.terminator;whiteSpace=wrap;" parent="1" vertex="1">
          <mxGeometry x="364" y="939" width="100" height="60" as="geometry" />
        </mxCell>
        <mxCell id="eqLPgTAr0_EnZ2apYkRN-44" value="False" style="edgeStyle=orthogonalEdgeStyle;rounded=0;orthogonalLoop=1;jettySize=auto;html=1;exitX=1;exitY=0.5;exitDx=0;exitDy=0;exitPerimeter=0;" parent="1" source="eqLPgTAr0_EnZ2apYkRN-40" edge="1">
          <mxGeometry x="-0.8333" y="20" relative="1" as="geometry">
            <mxPoint x="514" y="180" as="sourcePoint" />
            <mxPoint x="414" y="90" as="targetPoint" />
            <Array as="points">
              <mxPoint x="514" y="170" />
              <mxPoint x="514" y="90" />
            </Array>
            <mxPoint as="offset" />
          </mxGeometry>
        </mxCell>
        <mxCell id="eqLPgTAr0_EnZ2apYkRN-40" value="wait for &lt;br&gt;GPS data" style="strokeWidth=2;html=1;shape=mxgraph.flowchart.decision;whiteSpace=wrap;" parent="1" vertex="1">
          <mxGeometry x="364" y="120" width="100" height="100" as="geometry" />
        </mxCell>
        <mxCell id="eqLPgTAr0_EnZ2apYkRN-41" value="" style="edgeStyle=orthogonalEdgeStyle;rounded=0;orthogonalLoop=1;jettySize=auto;html=1;endArrow=none;" parent="1" target="eqLPgTAr0_EnZ2apYkRN-40" edge="1">
          <mxGeometry relative="1" as="geometry">
            <mxPoint x="414" y="240" as="sourcePoint" />
            <mxPoint x="414" y="270" as="targetPoint" />
            <Array as="points">
              <mxPoint x="414" y="240" />
              <mxPoint x="414" y="240" />
            </Array>
          </mxGeometry>
        </mxCell>
        <mxCell id="eqLPgTAr0_EnZ2apYkRN-75" value="True" style="edgeStyle=orthogonalEdgeStyle;rounded=0;orthogonalLoop=1;jettySize=auto;html=1;entryX=1;entryY=0.5;entryDx=0;entryDy=0;" parent="1" source="eqLPgTAr0_EnZ2apYkRN-66" target="2pTpa38BGVmSsJosTxPD-7" edge="1">
          <mxGeometry x="-0.6304" y="-20" relative="1" as="geometry">
            <mxPoint as="offset" />
            <mxPoint x="220" y="760" as="targetPoint" />
          </mxGeometry>
        </mxCell>
        <mxCell id="2pTpa38BGVmSsJosTxPD-4" style="edgeStyle=orthogonalEdgeStyle;rounded=0;orthogonalLoop=1;jettySize=auto;html=1;entryX=0;entryY=0.5;entryDx=0;entryDy=0;entryPerimeter=0;" edge="1" parent="1" source="eqLPgTAr0_EnZ2apYkRN-66" target="2pTpa38BGVmSsJosTxPD-8">
          <mxGeometry relative="1" as="geometry">
            <mxPoint x="620" y="760" as="targetPoint" />
          </mxGeometry>
        </mxCell>
        <mxCell id="2pTpa38BGVmSsJosTxPD-6" value="False" style="edgeLabel;html=1;align=center;verticalAlign=middle;resizable=0;points=[];" vertex="1" connectable="0" parent="2pTpa38BGVmSsJosTxPD-4">
          <mxGeometry x="-0.7653" y="-2" relative="1" as="geometry">
            <mxPoint x="3" y="-22" as="offset" />
          </mxGeometry>
        </mxCell>
        <mxCell id="eqLPgTAr0_EnZ2apYkRN-66" value="if&lt;br&gt;target area&lt;br&gt;found" style="strokeWidth=2;html=1;shape=mxgraph.flowchart.decision;whiteSpace=wrap;" parent="1" vertex="1">
          <mxGeometry x="364" y="670" width="100" height="100" as="geometry" />
        </mxCell>
        <mxCell id="2pTpa38BGVmSsJosTxPD-14" style="edgeStyle=orthogonalEdgeStyle;rounded=0;orthogonalLoop=1;jettySize=auto;html=1;entryX=0;entryY=0.5;entryDx=0;entryDy=0;" edge="1" parent="1" source="2pTpa38BGVmSsJosTxPD-7" target="eqLPgTAr0_EnZ2apYkRN-18">
          <mxGeometry relative="1" as="geometry">
            <mxPoint x="310" y="860" as="targetPoint" />
            <Array as="points">
              <mxPoint x="165" y="850" />
            </Array>
          </mxGeometry>
        </mxCell>
        <mxCell id="2pTpa38BGVmSsJosTxPD-7" value="Descends 10 meter down at an altitude of 20 meters from ground and drops the payload and&amp;nbsp;Rises back to 30 meters" style="rounded=1;whiteSpace=wrap;html=1;absoluteArcSize=1;arcSize=14;strokeWidth=2;" vertex="1" parent="1">
          <mxGeometry x="110" y="665" width="110" height="110" as="geometry" />
        </mxCell>
        <mxCell id="2pTpa38BGVmSsJosTxPD-9" style="edgeStyle=orthogonalEdgeStyle;rounded=0;orthogonalLoop=1;jettySize=auto;html=1;entryX=1.005;entryY=0.402;entryDx=0;entryDy=0;entryPerimeter=0;" edge="1" parent="1" source="2pTpa38BGVmSsJosTxPD-8" target="eqLPgTAr0_EnZ2apYkRN-34">
          <mxGeometry relative="1" as="geometry">
            <mxPoint x="520" y="490" as="targetPoint" />
            <Array as="points">
              <mxPoint x="670" y="560" />
            </Array>
          </mxGeometry>
        </mxCell>
        <mxCell id="2pTpa38BGVmSsJosTxPD-11" value="False" style="edgeLabel;html=1;align=center;verticalAlign=middle;resizable=0;points=[];" vertex="1" connectable="0" parent="2pTpa38BGVmSsJosTxPD-9">
          <mxGeometry x="-0.8689" y="-1" relative="1" as="geometry">
            <mxPoint x="19" as="offset" />
          </mxGeometry>
        </mxCell>
        <mxCell id="2pTpa38BGVmSsJosTxPD-12" style="edgeStyle=orthogonalEdgeStyle;rounded=0;orthogonalLoop=1;jettySize=auto;html=1;entryX=1;entryY=0.5;entryDx=0;entryDy=0;" edge="1" parent="1" source="2pTpa38BGVmSsJosTxPD-8" target="eqLPgTAr0_EnZ2apYkRN-18">
          <mxGeometry relative="1" as="geometry">
            <mxPoint x="620" y="850" as="targetPoint" />
            <Array as="points">
              <mxPoint x="670" y="850" />
            </Array>
          </mxGeometry>
        </mxCell>
        <mxCell id="2pTpa38BGVmSsJosTxPD-13" value="True" style="edgeLabel;html=1;align=center;verticalAlign=middle;resizable=0;points=[];" vertex="1" connectable="0" parent="2pTpa38BGVmSsJosTxPD-12">
          <mxGeometry x="-0.8182" y="1" relative="1" as="geometry">
            <mxPoint x="19" y="4" as="offset" />
          </mxGeometry>
        </mxCell>
        <mxCell id="2pTpa38BGVmSsJosTxPD-8" value="if&lt;br&gt;End of area" style="strokeWidth=2;html=1;shape=mxgraph.flowchart.decision;whiteSpace=wrap;" vertex="1" parent="1">
          <mxGeometry x="620" y="670" width="100" height="100" as="geometry" />
        </mxCell>
      </root>
    </mxGraphModel>
  </diagram>
</mxfile>
